<svg width="34" height="38" viewBox="0 0 34 38" fill="none" xmlns="http://www.w3.org/2000/svg">
<circle cx="6.94631" cy="8" r="5.33333" fill="#FFA600"/>
<circle cx="20.2796" cy="6.66667" r="5.33333" fill="#FFA600"/>
<circle cx="26.9463" cy="8" r="5.33333" fill="#FFA600"/>
<circle cx="13.613" cy="8" r="5.33333" fill="#FFA600"/>
<circle cx="16.2796" cy="5.33333" r="5.33333" fill="#FFA600"/>
<path d="M32.613 11.3333H0.612976L5.94631 37.3333H27.2796L32.613 11.3333Z" fill="#FFF5E3" stroke="#521100"/>
<path d="M23.9463 36.6667L28.613 12H31.2796L25.9463 36.6667H23.9463Z" fill="#521100"/>
<path d="M8.27964 36.7018L3.61298 12.0351L6.27964 12.6316L10.2796 36.6316L8.27964 36.7018Z" fill="#521100"/>
<path d="M20.613 36.6667L25.9463 12H21.2796L19.2796 36.6667H20.613Z" fill="#521100"/>
<path d="M15.2796 36.6667V12.6667L11.9463 12L13.9463 36.6667H15.2796Z" fill="#521100"/>
<path d="M23.9463 36.6667L28.613 12H31.2796L25.9463 36.6667H23.9463Z" stroke="#521100" stroke-linecap="round"/>
<path d="M8.27964 36.7018L3.61298 12.0351L6.27964 12.6316L10.2796 36.6316L8.27964 36.7018Z" stroke="#521100" stroke-linecap="round"/>
<path d="M20.613 36.6667L25.9463 12H21.2796L19.2796 36.6667H20.613Z" stroke="#521100" stroke-linecap="round"/>
<path d="M15.2796 36.6667V12.6667L11.9463 12L13.9463 36.6667H15.2796Z" stroke="#521100" stroke-linecap="round"/>
</svg>
